PathFileType	4	(X/Y/Z)	Shrugging.trc																																																																									
DataRate	CameraRate	NumFrames	NumMarkers	Units	OrigDataRate	OrigDataStartFrame	OrigNumFrames																																																																					
100	100	8	25	mm	100	0	2047																																																																					
Frame#	Time	AA			AI			Ant_Sh			CV7			GH			LAH			Lat_Sh			LCAJ			LPH			Post_Sh			RAH			RCAJ			RHLE			RHME			RPH			RUA			SJN			SXS			TS			TV8			centelbow			centpxt8			centijc7			centLPHRPH			ScapulaThoracicContactPt		
		X1	Y1	Z1	X2	Y2	Z2	X3	Y3	Z3	X4	Y4	Z4	X5	Y5	Z5	X6	Y6	Z6	X7	Y7	Z7	X8	Y8	Z8	X9	Y9	Z9	X10	Y10	Z10	X11	Y11	Z11	X12	Y12	Z12	X13	Y13	Z13	X14	Y14	Z14	X15	Y15	Z15	X16	Y16	Z16	X17	Y17	Z17	X18	Y18	Z18	X19	Y19	Z19	X20	Y20	Z20	X21	Y21	Z21	X22	Y22	Z22	X23	Y23	Z23	X24	Y24	Z24	X25	Y25	Z25
																																																																												
1	0	-60.63757706	1517.183228	1073.607544	-118.6743393	1353.065552	995.6272583	49.700737	1483.964844	1073.586426	-65.19628143	1593.828247	870.0272827	-5.901679039	1482.890015	1071.959351	146.1115875	1772.475342	829.6512451	-7.19154644	1498.578979	1105.674805	3.936714411	1559.485962	689.8811646	-60.27489853	1718.514648	817.1535034	-87.19633484	1481.318726	1069.580444	141.9305573	1775.457275	924.8718262	-4.705959797	1550.565186	1046.683838	10.49639034	1204.993286	1173.141113	-7.695356846	1160.076172	1059.204956	-56.28205109	1723.047363	933.5093994	-78.17970276	1328.236938	1117.90564	97.9697876	1504.959717	876.2388916	151.7273407	1331.866577	876.0792236	-116.01577	1494.191772	959.1421509	-82.38109589	1305.091797	864.154541	1.400516748	1182.534729	1116.173035	34.67312241	1318.479187	870.1168823	16.38675308	1549.393982	873.1330872	-58.27847481	1720.781006	875.3314514	-98.4425621	1454.813517	1009.458984
2	0.01	-60.50078964	1517.301025	1073.631348	-118.4521103	1353.110718	995.638855	49.9070015	1484.04248	1073.568359	-64.97201538	1593.819458	870.0606689	-5.690924644	1482.973755	1071.953125	146.425827	1772.449707	829.7521362	-6.973432064	1498.698608	1105.693115	4.078605175	1559.537476	689.9733887	-59.95187378	1718.595093	817.1348267	-86.97225952	1481.411255	1069.591675	142.2114258	1775.406738	924.9036255	-4.525121689	1550.661499	1046.639648	10.74543762	1205.14563	1173.16748	-7.337512493	1160.236694	1059.350098	-56.05787659	1723.057739	933.4154663	-77.97258759	1328.302124	1117.871704	98.18962097	1505.028076	876.2230225	151.9374695	1331.938599	876.1151123	-115.8091354	1494.270874	959.1265259	-82.19116974	1305.086182	864.1685181	1.703962564	1182.691162	1116.258789	34.87314987	1318.51239	870.1418152	16.6088028	1549.423767	873.1418457	-58.00487518	1720.826416	875.2751465	-98.25401179	1454.894206	1009.465576
3	0.02	-60.33891678	1517.436646	1073.609863	-118.2348633	1353.08728	995.7149048	50.0662117	1484.112793	1073.571655	-64.77495575	1593.872192	870.124939	-5.49834919	1483.073242	1071.94165	146.5769806	1772.484619	829.6775513	-6.781493187	1498.812988	1105.644775	4.186128139	1559.631348	689.9795532	-59.73314285	1718.684326	817.1416626	-86.78842926	1481.552368	1069.557007	142.3757629	1775.383423	924.9759521	-4.325469017	1550.822266	1046.654907	10.92096996	1205.244873	1173.195679	-7.057539463	1160.316772	1059.434326	-55.91324615	1723.083374	933.388916	-77.80835724	1328.40979	1117.921143	98.35084534	1505.047974	876.2403564	152.0798645	1331.952515	876.0969849	-115.5896378	1494.283691	959.0889893	-81.90251923	1305.131714	864.1932983	1.93171525	1182.780823	1116.315002	35.08867264	1318.542114	870.1451416	16.78794479	1549.460083	873.1826477	-57.8231945	1720.88385	875.2652893	-98.05447261	1454.935872	1009.471252
4	0.03	-60.17612839	1517.533936	1073.540649	-118.0275955	1353.127319	995.6948242	50.2280426	1484.213257	1073.56897	-64.61326599	1593.943481	870.1395874	-5.348167896	1483.184692	1071.926514	146.8392487	1772.477539	829.7536621	-6.635035515	1498.920654	1105.616455	4.315083027	1559.716797	690.0203857	-59.51091003	1718.781738	817.1022339	-86.58317566	1481.681274	1069.525757	142.6040649	1775.341187	925.0285034	-4.107037544	1550.944336	1046.605103	11.08620262	1205.367188	1173.258423	-6.798914433	1160.39563	1059.507813	-55.75616837	1723.151245	933.3634033	-77.53547668	1328.556274	1117.869263	98.6039505	1505.118286	876.2182617	152.3520966	1332.070557	876.0610962	-115.370636	1494.378418	958.9675903	-81.70488739	1305.178467	864.1964722	2.143644094	1182.881409	1116.383118	35.32360458	1318.624512	870.1287842	16.99534225	1549.530884	873.1789246	-57.6335392	1720.966492	875.2328186	-97.85811996	1455.013224	1009.401021
5	0.04	-60.06642914	1517.689697	1073.580078	-117.8581238	1353.139771	995.7077637	50.40002823	1484.365601	1073.599854	-64.40450287	1593.92749	870.1451416	-5.176111698	1483.303101	1071.938965	146.9905243	1772.512329	829.678833	-6.483708382	1499.036011	1105.627319	4.400477886	1559.777466	690.0785522	-59.25225449	1718.828613	817.1057739	-86.38388062	1481.750488	1069.511963	142.7595367	1775.34314	925.1051025	-3.924286366	1551.055664	1046.614258	11.26707363	1205.437378	1173.331787	-6.495801926	1160.418335	1059.63147	-55.51417923	1723.196045	933.352417	-77.36378479	1328.67749	1117.911133	98.80033112	1505.156128	876.1820068	152.535675	1332.095947	876.0669556	-115.1845627	1494.398071	958.965271	-81.47434998	1305.187988	864.24823	2.385635853	1182.927856	1116.481628	35.53066254	1318.641968	870.1575928	17.19791412	1549.541809	873.1635742	-57.38321686	1721.012329	875.2290955	-97.70303853	1455.075846	1009.417704
6	0.05	-59.91351318	1517.843262	1073.470459	-117.6432343	1353.199585	995.6549683	50.56319809	1484.498535	1073.595581	-64.18147278	1593.973267	870.1741333	-5.019143105	1483.407593	1071.940186	146.9863434	1772.527588	829.5407104	-6.330691814	1499.167114	1105.5896	4.529806137	1559.804688	690.1119995	-58.96301651	1718.920898	817.0477905	-86.2899704	1481.812256	1069.519531	142.9548187	1775.33728	925.1625366	-3.782698154	1551.14209	1046.593018	11.50627899	1205.580078	1173.450928	-6.273430347	1160.505737	1059.670898	-55.41784286	1723.237305	933.3444214	-77.14881134	1328.771729	1117.922852	99.02118683	1505.22998	876.2088623	152.7134399	1332.147461	876.0741577	-115.007164	1494.40686	958.8839111	-81.28444672	1305.182373	864.2622681	2.616424322	1183.042908	1116.560913	35.71449661	1318.664917	870.1682129	17.41985703	1549.601624	873.1914978	-57.19042969	1721.079102	875.196106	-97.52130381	1455.149902	1009.336446
7	0.06	-59.78963852	1517.931519	1073.504395	-117.4265366	1353.224243	995.7054443	50.71249771	1484.609375	1073.608521	-63.99047089	1594.015869	870.1991577	-4.876277924	1483.496338	1071.967529	147.1556854	1772.547241	829.5321045	-6.185773373	1499.305908	1105.604736	4.638864994	1559.828491	690.1248779	-58.71096039	1718.947388	817.0498047	-86.10638428	1481.869751	1069.569824	143.1627197	1775.309204	925.2147827	-3.654473305	1551.191284	1046.593262	11.71706104	1205.685303	1173.491455	-6.092183113	1160.589844	1059.730957	-55.23345184	1723.252563	933.3010254	-76.94830322	1328.918579	1117.893311	99.23495483	1505.291748	876.1953735	152.9374847	1332.186646	876.1040649	-114.8286057	1494.463013	958.8634033	-81.05291748	1305.218384	864.3183594	2.812438965	1183.137573	1116.611206	35.94228363	1318.702515	870.2112122	17.62224197	1549.653809	873.1972656	-56.97220612	1721.099976	875.175415	-97.34826024	1455.206258	1009.357747
8	0.07	-59.68227386	1518.017212	1073.495605	-117.269249	1353.244019	995.744751	50.84012604	1484.666016	1073.661011	-63.80508423	1594.086914	870.2577515	-4.675633907	1483.572388	1071.994385	147.2619781	1772.521118	829.5455933	-5.994711876	1499.375366	1105.561157	4.792199612	1559.907715	690.1635132	-58.52556992	1719.051392	817.0394897	-85.94247437	1481.971436	1069.554565	143.3715057	1775.354736	925.3248901	-3.431607962	1551.322266	1046.544678	11.8295927	1205.792236	1173.611084	-5.797603607	1160.656982	1059.766113	-55.11413574	1723.321533	933.2973633	-76.70713806	1329.02832	1117.94873	99.45120239	1505.347534	876.2261963	153.115921	1332.235962	876.1112671	-114.6432724	1494.476196	958.8773193	-80.86063385	1305.324463	864.3701172	3.015994549	1183.224609	1116.688599	36.12764359	1318.780212	870.2406921	17.82305908	1549.717224	873.2419739	-56.81985283	1721.186462	875.1684265	-97.19826508	1455.245809	1009.372559
